<svg id="Layer_1" enable-background="new 0 0 512 512" height="512" viewBox="0 0 512 512" width="512" xmlns="http://www.w3.org/2000/svg"><g><g><path d="m504.5 387.5h-116.75v-36.027l4.434-2.457c4.893 4.807 11.973 7.72 20.62 8.355 1.17.086 2.355.128 3.557.128 9.573 0 20.022-2.711 29.813-7.781 24.314-12.591 36.724-35.288 28.251-51.672-4.362-8.437-13.694-13.705-25.602-14.453-4.126-.251-7.695 2.882-7.956 7.015-.26 4.134 2.881 7.696 7.015 7.956 6.519.41 11.337 2.732 13.219 6.373 3.89 7.521-4.117 22.291-21.825 31.461-8.465 4.384-17.716 6.578-25.373 6.013-2.669-.196-5.041-.723-7.037-1.529l13.122-7.27c3.623-2.007 4.933-6.572 2.926-10.195-2.008-3.624-6.569-4.934-10.195-2.926l-11.869 6.575c2.235-6.999 9.145-15.33 20.307-21.562 3.617-2.02 4.911-6.588 2.892-10.205s-6.587-4.911-10.204-2.892c-19.759 11.033-30.832 28.493-28.52 43.26l-5.074 2.811-5.087-2.818c2.354-15.317-9.731-33.572-30.604-44.381-11.02-5.706-22.875-8.422-33.37-7.652-11.835.869-20.754 5.99-25.113 14.419-8.473 16.384 3.937 39.081 28.251 51.672 9.792 5.07 20.24 7.781 29.813 7.781 1.2 0 2.387-.042 3.557-.128 8.647-.635 15.727-3.549 20.62-8.355l4.434 2.457v36.027h-233.5v-36.027l4.434-2.457c4.893 4.807 11.973 7.72 20.62 8.355 1.17.086 2.355.128 3.557.128 9.573 0 20.022-2.711 29.813-7.781 24.314-12.591 36.724-35.288 28.251-51.672-4.359-8.43-13.278-13.55-25.113-14.419-10.502-.773-22.352 1.947-33.37 7.652-20.874 10.81-32.959 29.064-30.604 44.381l-5.087 2.818-5.087-2.818c2.354-15.317-9.731-33.572-30.604-44.381-11.02-5.706-22.874-8.422-33.37-7.652-11.835.869-20.754 5.99-25.113 14.419-8.473 16.384 3.937 39.081 28.251 51.672 9.792 5.07 20.24 7.781 29.813 7.781 1.2 0 2.387-.042 3.557-.128 8.647-.635 15.727-3.549 20.62-8.355l4.434 2.457v36.027h-116.754c-4.143 0-7.5 3.358-7.5 7.5v60c0 4.142 3.357 7.5 7.5 7.5h276.525c4.143 0 7.5-3.358 7.5-7.5s-3.357-7.5-7.5-7.5h-269.025v-45h94.115v1.5c0 12.407 10.094 22.5 22.5 22.5s22.5-10.093 22.5-22.5v-1.5h203.635v1.5c0 12.407 10.094 22.5 22.5 22.5s22.5-10.093 22.5-22.5v-1.5h94.25v45h-178.103c-4.143 0-7.5 3.358-7.5 7.5s3.357 7.5 7.5 7.5h185.603c4.143 0 7.5-3.358 7.5-7.5v-60c0-4.142-3.357-7.5-7.5-7.5zm-157.902-45.087c-7.653.56-16.908-1.629-25.373-6.013-17.708-9.17-25.715-23.94-21.825-31.461 1.846-3.57 6.543-5.885 12.888-6.351.79-.058 1.598-.086 2.419-.086 7.141 0 15.362 2.168 22.954 6.1 12.057 6.243 19.611 15.082 21.98 22.462l-11.858-6.569c-3.625-2.007-8.188-.697-10.195 2.926s-.697 8.188 2.926 10.195l13.122 7.27c-1.997.804-4.369 1.331-7.038 1.527zm-172.259-37.812c7.593-3.932 15.813-6.1 22.955-6.1.821 0 1.629.028 2.419.086 6.345.466 11.042 2.781 12.888 6.351 3.89 7.521-4.117 22.291-21.825 31.461-8.465 4.384-17.716 6.578-25.373 6.013-2.669-.196-5.041-.723-7.037-1.529l13.122-7.27c3.623-2.007 4.933-6.572 2.926-10.195-2.008-3.624-6.569-4.934-10.195-2.926l-11.858 6.569c2.368-7.378 9.922-16.217 21.978-22.46zm-76.241 37.812c-7.653.56-16.908-1.629-25.373-6.013-17.708-9.17-25.715-23.94-21.825-31.461 1.846-3.57 6.543-5.885 12.888-6.351.79-.058 1.598-.086 2.419-.086 7.141 0 15.362 2.168 22.954 6.1 12.057 6.243 19.611 15.082 21.98 22.462l-11.858-6.569c-3.625-2.007-8.188-.697-10.195 2.926s-.697 8.188 2.926 10.195l13.122 7.27c-1.997.804-4.37 1.331-7.038 1.527zm41.017 61.587c0 4.136-3.364 7.5-7.5 7.5s-7.5-3.364-7.5-7.5v-1.5h15zm248.635 0c0 4.136-3.364 7.5-7.5 7.5s-7.5-3.364-7.5-7.5v-1.5h15z"/><path d="m504.5 153.501h-116.75v-36.027l4.434-2.456c4.893 4.807 11.973 7.72 20.62 8.355 1.17.086 2.355.128 3.557.128 9.573 0 20.022-2.711 29.813-7.781 24.314-12.591 36.724-35.288 28.251-51.672-4.359-8.43-13.278-13.55-25.113-14.419-10.503-.773-22.352 1.947-33.37 7.652-20.874 10.81-32.959 29.064-30.604 44.381l-5.087 2.818-5.087-2.818c2.354-15.317-9.731-33.572-30.604-44.381-11.02-5.706-22.875-8.426-33.37-7.652-11.835.869-20.754 5.99-25.113 14.419-8.473 16.384 3.937 39.081 28.251 51.672 9.792 5.07 20.24 7.781 29.813 7.781 1.2 0 2.387-.042 3.557-.128 8.647-.635 15.727-3.549 20.62-8.355l4.434 2.456v36.027h-233.5v-36.027l4.434-2.456c4.893 4.807 11.973 7.72 20.62 8.355 1.17.086 2.355.128 3.557.128 9.573 0 20.022-2.711 29.813-7.781 24.314-12.591 36.724-35.288 28.251-51.672-4.359-8.43-13.278-13.55-25.113-14.419-10.502-.773-22.352 1.947-33.37 7.652-20.874 10.81-32.959 29.064-30.604 44.381l-5.087 2.818-5.087-2.818c2.354-15.317-9.731-33.572-30.604-44.381-11.02-5.706-22.874-8.426-33.37-7.652-11.835.869-20.754 5.99-25.113 14.419-8.473 16.384 3.937 39.081 28.251 51.672 9.792 5.07 20.24 7.781 29.813 7.781 1.2 0 2.387-.042 3.557-.128 8.647-.635 15.727-3.549 20.62-8.355l4.434 2.456v36.027h-49.254c-4.143 0-7.5 3.358-7.5 7.5s3.357 7.5 7.5 7.5h34.115v1.5c0 12.407 10.094 22.5 22.5 22.5s22.5-10.093 22.5-22.5v-1.5h203.635v1.5c0 12.407 10.094 22.5 22.5 22.5s22.5-10.093 22.5-22.5v-1.5h94.25v45h-482v-45h24.718c4.143 0 7.5-3.358 7.5-7.5s-3.357-7.5-7.5-7.5h-32.218c-4.143 0-7.5 3.358-7.5 7.5v60c0 4.142 3.357 7.5 7.5 7.5h497c4.143 0 7.5-3.358 7.5-7.5v-60c0-4.142-3.357-7.5-7.5-7.5zm-81.661-82.899c7.593-3.932 15.813-6.1 22.955-6.1.821 0 1.629.028 2.419.086 6.345.466 11.042 2.781 12.888 6.351 3.89 7.521-4.117 22.291-21.825 31.461-8.465 4.384-17.716 6.578-25.373 6.013-2.669-.196-5.041-.723-7.037-1.529l13.122-7.27c3.623-2.007 4.933-6.572 2.926-10.195-2.008-3.624-6.569-4.935-10.195-2.926l-11.858 6.569c2.368-7.379 9.922-16.217 21.978-22.46zm-76.241 37.812c-7.653.563-16.908-1.629-25.373-6.013-17.708-9.17-25.715-23.94-21.825-31.461 1.846-3.57 6.543-5.885 12.888-6.351.79-.058 1.598-.086 2.419-.086 7.141 0 15.362 2.168 22.954 6.1 12.057 6.243 19.611 15.082 21.98 22.462l-11.858-6.569c-3.625-2.008-8.188-.697-10.195 2.926s-.697 8.187 2.926 10.195l13.122 7.27c-1.997.804-4.369 1.331-7.038 1.527zm-172.259-37.812c7.593-3.932 15.813-6.1 22.955-6.1.821 0 1.629.028 2.419.086 6.345.466 11.042 2.781 12.888 6.351 3.89 7.521-4.117 22.291-21.825 31.461-8.465 4.384-17.716 6.578-25.373 6.013-2.669-.196-5.041-.723-7.037-1.529l13.122-7.27c3.623-2.007 4.933-6.572 2.926-10.195-2.008-3.624-6.569-4.935-10.195-2.926l-11.858 6.569c2.368-7.379 9.922-16.217 21.978-22.46zm-76.241 37.812c-7.653.563-16.908-1.629-25.373-6.013-17.708-9.17-25.715-23.94-21.825-31.461 1.846-3.57 6.543-5.885 12.888-6.351.79-.058 1.598-.086 2.419-.086 7.141 0 15.362 2.168 22.954 6.1 12.057 6.243 19.611 15.082 21.98 22.462l-11.858-6.569c-3.625-2.008-8.188-.697-10.195 2.926s-.697 8.187 2.926 10.195l13.122 7.27c-1.997.804-4.37 1.331-7.038 1.527zm41.017 61.587c0 4.136-3.364 7.5-7.5 7.5s-7.5-3.364-7.5-7.5v-1.5h15zm248.635 0c0 4.136-3.364 7.5-7.5 7.5s-7.5-3.364-7.5-7.5v-1.5h15z"/></g></g></svg>