<svg id="Capa_1" enable-background="new 0 0 512 512" height="512" viewBox="0 0 512 512" width="512" xmlns="http://www.w3.org/2000/svg"><g><path d="m414.867 80.832c-2.514-3.19-5.94-5.539-9.821-6.734l-143.16-44.094c-3.836-1.182-7.938-1.182-11.774 0l-143.16 44.094c-3.881 1.195-7.307 3.544-9.821 6.734l-87.131 110.56 28.482 28.482 86.204-109.385 131.312-40.444 131.312 40.444 86.207 109.388 28.483-28.481z" fill="#e67e95"/><g><path id="XMLID_162_" d="m29.999 442.888h452v40h-452z" fill="#93a7bb"/><path d="m447.999 192.924v249.964h-384v-249.964l60.687-82.435 131.313-40.444 131.312 40.444z" fill="#e67e95"/><g><path d="m373.999 442.888h-236v-196h236z" fill="#fff"/></g><path d="m177.999 286.888h156v156h-156z" fill="#c5a09d"/><circle cx="255.999" cy="162.118" fill="#f9e6b9" r="30.806"/></g><g><path d="m457.999 216.341 7.666 9.727c1.769 2.244 4.412 3.624 7.265 3.792.197.012.394.018.59.018 2.644 0 5.19-1.048 7.071-2.929l28.482-28.482c3.583-3.583 3.919-9.28.783-13.261l-87.135-110.564c-3.789-4.807-8.883-8.3-14.732-10.102l-143.159-44.092c-5.778-1.78-11.885-1.78-17.662 0l-143.16 44.094c-5.849 1.801-10.943 5.294-14.732 10.102l-87.13 110.56c-3.137 3.98-2.8 9.677.783 13.26l28.482 28.482c2.02 2.02 4.81 3.082 7.661 2.912 2.853-.168 5.496-1.549 7.265-3.792l7.663-9.723v216.546h-24c-5.523 0-10 4.477-10 10v40c0 5.523 4.477 10 10 10h452c5.523 0 10-4.477 10-10v-40c0-5.523-4.477-10-10-10h-24v-57.36c0-5.523-4.477-10-10-10s-10 4.477-10 10v57.36h-54v-186c0-5.523-4.477-10-10-10h-236c-5.523 0-10 4.477-10 10v186h-54v-241.926l56.611-71.834 125.389-38.62 125.389 38.62 56.611 71.834v94.565c0 5.523 4.477 10 10 10s10-4.477 10-10v-69.187zm-310 40.547h216v176h-20v-146c0-5.523-4.477-10-10-10h-156c-5.523 0-10 4.477-10 10v146h-20zm176 161.857-53.858-53.857 53.858-53.857zm-68-68-53.858-53.858h107.717zm-68-39.714 53.858 53.857-53.858 53.857zm68 67.999 53.858 53.857h-107.716zm216 73.858v20h-432v-20zm-81.745-351.956-131.312-40.444c-.959-.295-1.951-.443-2.943-.443s-1.984.147-2.943.443l-131.312 40.444c-1.941.598-3.654 1.772-4.911 3.367l-79.239 100.546-14.241-14.241 81.63-103.581c1.263-1.603 2.961-2.767 4.911-3.367l143.161-44.094c1.926-.593 3.96-.593 5.887 0l143.16 44.094c1.95.6 3.648 1.765 4.911 3.367l81.633 103.584-14.241 14.241-79.24-100.548c-1.257-1.595-2.97-2.769-4.911-3.368z"/><path d="m215.193 162.118c0 22.5 18.305 40.806 40.806 40.806s40.806-18.305 40.806-40.806-18.305-40.806-40.806-40.806-40.806 18.305-40.806 40.806zm61.611 0c0 11.472-9.333 20.806-20.806 20.806s-20.806-9.333-20.806-20.806 9.333-20.806 20.806-20.806 20.806 9.334 20.806 20.806z"/><circle cx="447.999" cy="330.53" r="10"/></g></g></svg>