<?xml version="1.0" encoding="iso-8859-1"?>
<!-- Generator: Adobe Illustrator 19.0.0, SVG Export Plug-In . SVG Version: 6.00 Build 0)  -->
<svg version="1.1" id="Layer_1" xmlns="http://www.w3.org/2000/svg" xmlns:xlink="http://www.w3.org/1999/xlink" x="0px" y="0px"
	 viewBox="0 0 512 512" style="enable-background:new 0 0 512 512;" xml:space="preserve">
<path style="fill:#CC2A00;" d="M255.999,0C152.787,0,68.818,85.478,68.818,190.545c0,58.77,29.724,130.103,88.349,212.017
	c42.902,59.948,85.178,102.702,86.957,104.494c3.27,3.292,7.572,4.943,11.879,4.943c4.182,0,8.367-1.558,11.611-4.683
	c1.783-1.717,44.166-42.74,87.149-101.86c58.672-80.701,88.421-153.007,88.421-214.912C443.181,85.478,359.211,0,255.999,0z"/>
<path style="fill:#A92300;" d="M255.999,0c-0.373,0-0.743,0.012-1.116,0.015v511.932c0.372,0.025,0.744,0.054,1.117,0.054
	c4.182,0,8.367-1.558,11.611-4.683c1.783-1.717,44.166-42.74,87.149-101.86c58.672-80.701,88.421-153.007,88.421-214.912
	C443.181,85.478,359.211,0,255.999,0z"/>
<path style="fill:#991718;" d="M255.999,89.784c-50.46,0-91.511,41.052-91.511,91.511s41.052,91.511,91.511,91.511
	s91.511-41.052,91.511-91.511S306.458,89.784,255.999,89.784z"/>
<path style="fill:#780F13;" d="M255.999,89.784c-0.374,0-0.743,0.023-1.116,0.028v182.966c0.373,0.004,0.742,0.028,1.116,0.028
	c50.46,0,91.511-41.052,91.511-91.511S306.458,89.784,255.999,89.784z"/>
<path style="fill:#690812;" d="M255.999,126.611c44.154,0,81.105,31.433,89.65,73.097c1.221-5.95,1.861-12.109,1.861-18.414
	c0-50.46-41.052-91.511-91.511-91.511s-91.511,41.052-91.511,91.511c0,6.305,0.642,12.463,1.861,18.414
	C174.895,158.044,211.845,126.611,255.999,126.611z"/>
<g>
</g>
<g>
</g>
<g>
</g>
<g>
</g>
<g>
</g>
<g>
</g>
<g>
</g>
<g>
</g>
<g>
</g>
<g>
</g>
<g>
</g>
<g>
</g>
<g>
</g>
<g>
</g>
<g>
</g>
</svg>
